<svg width="64" height="64" viewBox="0 0 64 64" fill="none" xmlns="http://www.w3.org/2000/svg">
  <circle cx="32" cy="32" r="28" fill="#FF6B35" stroke="#E55A2B" stroke-width="2"/>
  <circle cx="32" cy="28" r="16" fill="#FFB08B" opacity="0.8"/>
  <circle cx="32" cy="28" r="12" fill="#FFFFFF" opacity="0.6"/>
  <circle cx="32" cy="28" r="8" fill="#FF6B35"/>
  <circle cx="32" cy="28" r="4" fill="#E55A2B"/>
  
  <!-- 별들 -->
  <g fill="#FFFFFF" opacity="0.9">
    <polygon points="20,16 22,20 26,20 23,23 24,27 20,25 16,27 17,23 14,20 18,20" />
    <polygon points="44,16 46,20 50,20 47,23 48,27 44,25 40,27 41,23 38,20 42,20" />
    <polygon points="20,40 22,44 26,44 23,47 24,51 20,49 16,51 17,47 14,44 18,44" />
    <polygon points="44,40 46,44 50,44 47,47 48,51 44,49 40,51 41,47 38,44 42,44" />
  </g>
  
  <!-- 중앙 눈 -->
  <circle cx="32" cy="28" r="2" fill="#FFFFFF"/>
</svg>