<svg width="48" height="48" viewBox="0 0 48 48" fill="none" xmlns="http://www.w3.org/2000/svg">
  <rect x="4" y="8" width="40" height="32" rx="6" fill="#FF6B35"/>
  <rect x="6" y="10" width="36" height="28" rx="4" fill="#FFB08B"/>
  <rect x="8" y="12" width="32" height="24" rx="2" fill="#FFFFFF"/>
  
  <!-- 별 패턴 -->
  <g fill="#FF6B35" opacity="0.3">
    <polygon points="16,20 17,22 19,22 17.5,23.5 18,26 16,25 14,26 14.5,23.5 13,22 15,22" />
    <polygon points="32,20 33,22 35,22 33.5,23.5 34,26 32,25 30,26 30.5,23.5 29,22 31,22" />
    <polygon points="24,28 25,30 27,30 25.5,31.5 26,34 24,33 22,34 22.5,31.5 21,30 23,30" />
  </g>
  
  <!-- 텍스트 라인들 -->
  <rect x="12" y="16" width="20" height="2" rx="1" fill="#FF6B35" opacity="0.6"/>
  <rect x="12" y="20" width="16" height="2" rx="1" fill="#FF6B35" opacity="0.4"/>
  <rect x="12" y="28" width="18" height="2" rx="1" fill="#FF6B35" opacity="0.6"/>
  <rect x="12" y="32" width="14" height="2" rx="1" fill="#FF6B35" opacity="0.4"/>
</svg>