<svg width="64" height="64" viewBox="0 0 64 64" fill="none" xmlns="http://www.w3.org/2000/svg">
  <!-- 네잎클로버 -->
  <g transform="translate(32, 32)">
    <!-- 첫 번째 잎 (위쪽) -->
    <path d="M0,-16 C-8,-24 -8,-32 0,-24 C8,-32 8,-24 0,-16" fill="#22C55E"/>
    <path d="M0,-16 C-6,-22 -6,-28 0,-22 C6,-28 6,-22 0,-16" fill="#16A34A"/>
    
    <!-- 두 번째 잎 (오른쪽) -->
    <path d="M16,0 C24,-8 32,-8 24,0 C32,8 24,8 16,0" fill="#22C55E"/>
    <path d="M16,0 C22,-6 28,-6 22,0 C28,6 22,6 16,0" fill="#16A34A"/>
    
    <!-- 세 번째 잎 (아래쪽) -->
    <path d="M0,16 C8,24 8,32 0,24 C-8,32 -8,24 0,16" fill="#22C55E"/>
    <path d="M0,16 C6,22 6,28 0,22 C-6,28 -6,22 0,16" fill="#16A34A"/>
    
    <!-- 네 번째 잎 (왼쪽) -->
    <path d="M-16,0 C-24,8 -32,8 -24,0 C-32,-8 -24,-8 -16,0" fill="#22C55E"/>
    <path d="M-16,0 C-22,6 -28,6 -22,0 C-28,-6 -22,-6 -16,0" fill="#16A34A"/>
    
    <!-- 중앙 원 -->
    <circle r="4" fill="#15803D"/>
    <circle r="2" fill="#FFFFFF" opacity="0.8"/>
    
    <!-- 반짝임 효과 -->
    <g fill="#FFFFFF" opacity="0.6">
      <circle cx="-8" cy="-12" r="1"/>
      <circle cx="12" cy="-8" r="1"/>
      <circle cx="8" cy="12" r="1"/>
      <circle cx="-12" cy="8" r="1"/>
    </g>
  </g>
  
  <!-- 테두리 원 -->
  <circle cx="32" cy="32" r="30" fill="none" stroke="#22C55E" stroke-width="2" opacity="0.3"/>
</svg>