<svg width="48" height="48" viewBox="0 0 48 48" fill="none" xmlns="http://www.w3.org/2000/svg">
  <!-- 책 커버 -->
  <rect x="8" y="6" width="32" height="36" rx="2" fill="#FF6B35"/>
  <rect x="10" y="8" width="28" height="32" rx="1" fill="#FFB08B"/>
  
  <!-- 페이지들 -->
  <rect x="12" y="10" width="24" height="28" rx="1" fill="#FFFFFF"/>
  <rect x="14" y="12" width="20" height="24" rx="1" fill="#FFF8F5"/>
  
  <!-- 텍스트 라인들 -->
  <rect x="16" y="16" width="16" height="1.5" rx="0.75" fill="#FF6B35" opacity="0.6"/>
  <rect x="16" y="19" width="14" height="1.5" rx="0.75" fill="#FF6B35" opacity="0.4"/>
  <rect x="16" y="22" width="18" height="1.5" rx="0.75" fill="#FF6B35" opacity="0.6"/>
  <rect x="16" y="25" width="12" height="1.5" rx="0.75" fill="#FF6B35" opacity="0.4"/>
  <rect x="16" y="28" width="16" height="1.5" rx="0.75" fill="#FF6B35" opacity="0.6"/>
  <rect x="16" y="31" width="10" height="1.5" rx="0.75" fill="#FF6B35" opacity="0.4"/>
  
  <!-- 책갈피 -->
  <rect x="36" y="6" width="4" height="20" rx="2" fill="#E55A2B"/>
  <polygon points="36,26 40,26 38,30" fill="#E55A2B"/>
</svg>