<svg width="48" height="48" viewBox="0 0 48 48" fill="none" xmlns="http://www.w3.org/2000/svg">
  <!-- 동국대 건물 실루엣 -->
  <rect x="8" y="20" width="32" height="24" rx="2" fill="#FF6B35"/>
  <rect x="10" y="16" width="28" height="4" rx="1" fill="#E55A2B"/>
  
  <!-- 기둥들 -->
  <rect x="12" y="20" width="3" height="20" fill="#FFFFFF" opacity="0.9"/>
  <rect x="17" y="20" width="3" height="20" fill="#FFFFFF" opacity="0.9"/>
  <rect x="22" y="20" width="3" height="20" fill="#FFFFFF" opacity="0.9"/>
  <rect x="27" y="20" width="3" height="20" fill="#FFFFFF" opacity="0.9"/>
  <rect x="32" y="20" width="3" height="20" fill="#FFFFFF" opacity="0.9"/>
  
  <!-- 중앙 탑 -->
  <rect x="20" y="8" width="8" height="12" rx="1" fill="#E55A2B"/>
  <rect x="22" y="6" width="4" height="4" rx="2" fill="#FF6B35"/>
  
  <!-- 입구 -->
  <rect x="18" y="30" width="12" height="14" rx="6" fill="#E55A2B"/>
  <rect x="20" y="32" width="8" height="12" rx="4" fill="#FFFFFF" opacity="0.3"/>
  
  <!-- 장식적인 별 -->
  <polygon points="24,4 25,6 27,6 25.5,7.5 26,10 24,9 22,10 22.5,7.5 21,6 23,6" fill="#FFD700"/>
</svg>